<svg xmlns="http://www.w3.org/2000/svg" viewBox="0 -0.5 16 16" shape-rendering="crispEdges">
<path stroke="#3669b3" d="M0 0h16M0 1h16M0 2h16M0 3h2M4 3h6M12 3h4M0 4h2M4 4h1M9 4h1M12 4h4M0 5h2M12 5h4M0 6h2M12 6h4M0 7h4M10 7h6M0 8h3M11 8h5M0 9h5M12 9h4M0 10h5M13 10h3M0 11h5M13 11h3M0 12h5M12 12h4M0 13h5M9 13h7M0 14h4M10 14h6M0 15h3M11 15h5" />
<path stroke="#0b15f0" d="M2 3h1M10 3h1M2 4h1M5 4h1M10 4h1M2 5h1M4 5h1M10 5h1M2 6h1M4 7h1M3 8h1M5 9h1M8 9h1M5 10h1M7 10h1M5 11h1M7 11h1M5 12h1M8 12h1M5 13h1M4 14h1M3 15h1" />
<path stroke="#d7e1f0" d="M3 3h1M11 3h1M3 4h1M6 4h3M11 4h1M3 5h1M5 5h5M11 5h1M3 6h9M5 7h2M8 7h1M4 8h7M6 9h2M9 9h3M6 10h1M8 10h1M10 10h1M12 10h1M6 11h1M8 11h5M6 12h2M9 12h3M6 13h3M5 14h5M4 15h7" />
<path stroke="#0b1524" d="M7 7h1M9 7h1" />
<path stroke="#7b8594" d="M9 10h1M11 10h1" />
</svg>